{
    "asset" : {
        "generator" : "Khronos glTF Blender I/O v0.9.36",
        "version" : "2.0"
    },
    "extensionsUsed" : [
        "KHR_lights_punctual"
    ],
    "extensionsRequired" : [
        "KHR_lights_punctual"
    ],
    "extensions" : {
        "KHR_lights_punctual" : {
            "lights" : [
                {
                    "color" : [
                        1,
                        1,
                        1
                    ],
                    "intensity" : 400,
                    "type" : "point",
                    "name" : "Light.001"
                }
            ]
        }
    },
    "scene" : 0,
    "scenes" : [
        {
            "name" : "Scene",
            "nodes" : [
                0,
                1,
                3
            ]
        }
    ],
    "nodes" : [
        {
            "mesh" : 0,
            "name" : "Cube"
        },
        {
            "name" : "Camera",
            "rotation" : [
                0.483536034822464,
                0.33687159419059753,
                -0.20870360732078552,
                0.7804827094078064
            ],
            "translation" : [
                7.358891487121582,
                4.958309173583984,
                6.925790786743164
            ]
        },
        {
            "extensions" : {
                "KHR_lights_punctual" : {
                    "light" : 0
                }
            },
            "name" : "Light.001_Orientation",
            "rotation" : [
                -0.7071067690849304,
                0,
                0,
                0.7071067690849304
            ]
        },
        {
            "children" : [
                2
            ],
            "name" : "Light.001",
            "rotation" : [
                0.16907575726509094,
                0.7558803558349609,
                -0.27217137813568115,
                0.570947527885437
            ],
            "translation" : [
                1.512563943862915,
                1.8756043910980225,
                -0.1405065953731537
            ]
        }
    ],
    "materials" : [
        {
            "doubleSided" : true,
            "name" : "baked",
            "normalTexture" : {
                "index" : 0,
                "texCoord" : 0
            },
            "pbrMetallicRoughness" : {
                "baseColorTexture" : {
                    "index" : 1,
                    "texCoord" : 0
                },
                "metallicRoughnessTexture" : {
                    "index" : 2,
                    "texCoord" : 0
                },
                "roughnessFactor" : 0.1295454502105713
            }
        }
    ],
    "meshes" : [
        {
            "name" : "Cube",
            "primitives" : [
                {
                    "attributes" : {
                        "POSITION" : 0,
                        "NORMAL" : 1,
                        "TEXCOORD_0" : 2
                    },
                    "indices" : 3,
                    "material" : 0
                }
            ]
        }
    ],
    "textures" : [
        {
            "source" : 0
        },
        {
            "source" : 1
        },
        {
            "source" : 2
        }
    ],
    "images" : [
        {
            "bufferView" : 4,
            "mimeType" : "image/png",
            "name" : "Normall"
        },
        {
            "bufferView" : 5,
            "mimeType" : "image/png",
            "name" : "diffuse"
        },
        {
            "bufferView" : 6,
            "mimeType" : "image/png",
            "name" : "GLOSSY"
        }
    ],
    "accessors" : [
        {
            "bufferView" : 0,
            "componentType" : 5126,
            "count" : 96,
            "max" : [
                1,
                1,
                1
            ],
            "min" : [
                -1,
                -1,
                -1
            ],
            "type" : "VEC3"
        },
        {
            "bufferView" : 1,
            "componentType" : 5126,
            "count" : 96,
            "type" : "VEC3"
        },
        {
            "bufferView" : 2,
            "componentType" : 5126,
            "count" : 96,
            "type" : "VEC2"
        },
        {
            "bufferView" : 3,
            "componentType" : 5123,
            "count" : 132,
            "type" : "SCALAR"
        }
    ],
    "bufferViews" : [
        {
            "buffer" : 0,
            "byteLength" : 1152,
            "byteOffset" : 0
        },
        {
            "buffer" : 0,
            "byteLength" : 1152,
            "byteOffset" : 1152
        },
        {
            "buffer" : 0,
            "byteLength" : 768,
            "byteOffset" : 2304
        },
        {
            "buffer" : 0,
            "byteLength" : 264,
            "byteOffset" : 3072
        },
        {
            "buffer" : 0,
            "byteLength" : 1736737,
            "byteOffset" : 3336
        },
        {
            "buffer" : 0,
            "byteLength" : 635163,
            "byteOffset" : 1740076
        },
        {
            "buffer" : 0,
            "byteLength" : 706828,
            "byteOffset" : 2375240
        }
    ],
    "buffers" : [
        {
            "byteLength" : 3082068,
            "uri" : "data:application/octet-stream;base64,"
        }
    ]
}
