{
    "asset" : {
        "generator" : "Khronos glTF Blender I/O v0.9.36",
        "version" : "2.0"
    },
    "scene" : 0,
    "scenes" : [
        {
            "name" : "Scene",
            "nodes" : [
                1,
                2,
                3,
                4,
                5,
                6,
                7,
                8
            ]
        }
    ],
    "nodes" : [
        {
            "name" : "Spot",
            "rotation" : [
                -0.12141577899456024,
                -0.7709692120552063,
                0.2933969497680664,
                0.5520713925361633
            ],
            "scale" : [
                3.160097360610962,
                1,
                3.570948362350464
            ],
            "translation" : [
                -1.9311370849609375,
                11.275152206420898,
                -8.282594680786133
            ]
        },
        {
            "children" : [
                0
            ],
            "name" : "Light",
            "rotation" : [
                0.12141578644514084,
                0.7709692120552063,
                -0.2933970093727112,
                0.5520713925361633
            ],
            "translation" : [
                9.922136306762695,
                15.934298515319824,
                34.46156311035156
            ]
        },
        {
            "name" : "Camera",
            "rotation" : [
                0.483536034822464,
                0.33687159419059753,
                -0.20870360732078552,
                0.7804827094078064
            ],
            "translation" : [
                7.078524112701416,
                4.958309173583984,
                27.672962188720703
            ]
        },
        {
            "mesh" : 0,
            "name" : "BezierCurve",
            "rotation" : [
                0.5000000596046448,
                0.4999999701976776,
                -0.4999999701976776,
                0.5
            ],
            "translation" : [
                -0.2803645730018616,
                3.187650680541992,
                0.3957691192626953
            ]
        },
        {
            "name" : "NurbsPath",
            "translation" : [
                -0.2803671956062317,
                0,
                21.543357849121094
            ]
        },
        {
            "name" : "BezierCurve.001",
            "rotation" : [
                -0.49999988079071045,
                -0.4999999403953552,
                0.5000000596046448,
                -0.5000000596046448
            ],
            "translation" : [
                -0.2803671956062317,
                0,
                20.74717140197754
            ]
        },
        {
            "name" : "Empty",
            "translation" : [
                0,
                5.8245391845703125,
                -21.62293815612793
            ]
        },
        {
            "name" : "Empty.001",
            "translation" : [
                0,
                0.20318129658699036,
                -42.34746551513672
            ]
        },
        {
            "name" : "Empty.002",
            "translation" : [
                0,
                0,
                1
            ]
        }
    ],
    "animations" : [
        {
            "channels" : [
                {
                    "sampler" : 0,
                    "target" : {
                        "node" : 1,
                        "path" : "translation"
                    }
                },
                {
                    "sampler" : 1,
                    "target" : {
                        "node" : 1,
                        "path" : "rotation"
                    }
                },
                {
                    "sampler" : 2,
                    "target" : {
                        "node" : 1,
                        "path" : "scale"
                    }
                }
            ],
            "name" : "LightAction",
            "samplers" : [
                {
                    "input" : 4,
                    "interpolation" : "CUBICSPLINE",
                    "output" : 5
                },
                {
                    "input" : 4,
                    "interpolation" : "CUBICSPLINE",
                    "output" : 6
                },
                {
                    "input" : 4,
                    "interpolation" : "CUBICSPLINE",
                    "output" : 7
                }
            ]
        },
        {
            "channels" : [
                {
                    "sampler" : 0,
                    "target" : {
                        "node" : 6,
                        "path" : "translation"
                    }
                },
                {
                    "sampler" : 1,
                    "target" : {
                        "node" : 6,
                        "path" : "rotation"
                    }
                }
            ],
            "name" : "EmptyAction",
            "samplers" : [
                {
                    "input" : 8,
                    "interpolation" : "CUBICSPLINE",
                    "output" : 9
                },
                {
                    "input" : 8,
                    "interpolation" : "CUBICSPLINE",
                    "output" : 10
                }
            ]
        },
        {
            "channels" : [
                {
                    "sampler" : 0,
                    "target" : {
                        "node" : 7,
                        "path" : "translation"
                    }
                },
                {
                    "sampler" : 1,
                    "target" : {
                        "node" : 7,
                        "path" : "rotation"
                    }
                }
            ],
            "name" : "Empty.001Action",
            "samplers" : [
                {
                    "input" : 8,
                    "interpolation" : "CUBICSPLINE",
                    "output" : 11
                },
                {
                    "input" : 8,
                    "interpolation" : "CUBICSPLINE",
                    "output" : 12
                }
            ]
        },
        {
            "channels" : [
                {
                    "sampler" : 0,
                    "target" : {
                        "node" : 8,
                        "path" : "rotation"
                    }
                },
                {
                    "sampler" : 1,
                    "target" : {
                        "node" : 8,
                        "path" : "translation"
                    }
                }
            ],
            "name" : "Empty.002Action",
            "samplers" : [
                {
                    "input" : 13,
                    "interpolation" : "CUBICSPLINE",
                    "output" : 14
                },
                {
                    "input" : 15,
                    "interpolation" : "CUBICSPLINE",
                    "output" : 16
                }
            ]
        }
    ],
    "materials" : [
        {
            "doubleSided" : true,
            "name" : "Linen.002",
            "normalTexture" : {
                "index" : 0,
                "texCoord" : 0
            },
            "pbrMetallicRoughness" : {
                "baseColorFactor" : [
                    0,
                    0,
                    0,
                    1
                ],
                "metallicFactor" : 0.20000000298023224,
                "roughnessFactor" : 0.30000001192092896
            }
        }
    ],
    "meshes" : [
        {
            "name" : "BezierCurve",
            "primitives" : [
                {
                    "attributes" : {
                        "POSITION" : 0,
                        "NORMAL" : 1,
                        "TEXCOORD_0" : 2
                    },
                    "indices" : 3,
                    "material" : 0
                }
            ]
        }
    ],
    "textures" : [
        {
            "source" : 0
        }
    ],
    "images" : [
        {
            "bufferView" : 4,
            "mimeType" : "image/png",
            "name" : "Juppnorm"
        }
    ],
    "accessors" : [
        {
            "bufferView" : 0,
            "componentType" : 5126,
            "count" : 9772,
            "max" : [
                22.71794891357422,
                20.000009536743164,
                3.6946539878845215
            ],
            "min" : [
                -22.270267486572266,
                -20.000011444091797,
                -2.487825870513916
            ],
            "type" : "VEC3"
        },
        {
            "bufferView" : 1,
            "componentType" : 5126,
            "count" : 9772,
            "type" : "VEC3"
        },
        {
            "bufferView" : 2,
            "componentType" : 5126,
            "count" : 9772,
            "type" : "VEC2"
        },
        {
            "bufferView" : 3,
            "componentType" : 5123,
            "count" : 52431,
            "type" : "SCALAR"
        },
        {
            "bufferView" : 5,
            "componentType" : 5126,
            "count" : 5,
            "max" : [
                4.166666666666667
            ],
            "min" : [
                0
            ],
            "type" : "SCALAR"
        },
        {
            "bufferView" : 6,
            "componentType" : 5126,
            "count" : 15,
            "type" : "VEC3"
        },
        {
            "bufferView" : 7,
            "componentType" : 5126,
            "count" : 15,
            "type" : "VEC4"
        },
        {
            "bufferView" : 8,
            "componentType" : 5126,
            "count" : 15,
            "type" : "VEC3"
        },
        {
            "bufferView" : 9,
            "componentType" : 5126,
            "count" : 3,
            "max" : [
                4.166666666666667
            ],
            "min" : [
                0
            ],
            "type" : "SCALAR"
        },
        {
            "bufferView" : 10,
            "componentType" : 5126,
            "count" : 9,
            "type" : "VEC3"
        },
        {
            "bufferView" : 11,
            "componentType" : 5126,
            "count" : 9,
            "type" : "VEC4"
        },
        {
            "bufferView" : 12,
            "componentType" : 5126,
            "count" : 9,
            "type" : "VEC3"
        },
        {
            "bufferView" : 13,
            "componentType" : 5126,
            "count" : 9,
            "type" : "VEC4"
        },
        {
            "bufferView" : 14,
            "componentType" : 5126,
            "count" : 3,
            "max" : [
                4.166666666666667
            ],
            "min" : [
                0.041666666666666664
            ],
            "type" : "SCALAR"
        },
        {
            "bufferView" : 15,
            "componentType" : 5126,
            "count" : 9,
            "type" : "VEC4"
        },
        {
            "bufferView" : 16,
            "componentType" : 5126,
            "count" : 2,
            "max" : [
                2.0833333333333335
            ],
            "min" : [
                0.041666666666666664
            ],
            "type" : "SCALAR"
        },
        {
            "bufferView" : 17,
            "componentType" : 5126,
            "count" : 6,
            "type" : "VEC3"
        }
    ],
    "bufferViews" : [
        {
            "buffer" : 0,
            "byteLength" : 117264,
            "byteOffset" : 0
        },
        {
            "buffer" : 0,
            "byteLength" : 117264,
            "byteOffset" : 117264
        },
        {
            "buffer" : 0,
            "byteLength" : 78176,
            "byteOffset" : 234528
        },
        {
            "buffer" : 0,
            "byteLength" : 104862,
            "byteOffset" : 312704
        },
        {
            "buffer" : 0,
            "byteLength" : 425218,
            "byteOffset" : 417568
        },
        {
            "buffer" : 0,
            "byteLength" : 20,
            "byteOffset" : 842788
        },
        {
            "buffer" : 0,
            "byteLength" : 180,
            "byteOffset" : 842808
        },
        {
            "buffer" : 0,
            "byteLength" : 240,
            "byteOffset" : 842988
        },
        {
            "buffer" : 0,
            "byteLength" : 180,
            "byteOffset" : 843228
        },
        {
            "buffer" : 0,
            "byteLength" : 12,
            "byteOffset" : 843408
        },
        {
            "buffer" : 0,
            "byteLength" : 108,
            "byteOffset" : 843420
        },
        {
            "buffer" : 0,
            "byteLength" : 144,
            "byteOffset" : 843528
        },
        {
            "buffer" : 0,
            "byteLength" : 108,
            "byteOffset" : 843672
        },
        {
            "buffer" : 0,
            "byteLength" : 144,
            "byteOffset" : 843780
        },
        {
            "buffer" : 0,
            "byteLength" : 12,
            "byteOffset" : 843924
        },
        {
            "buffer" : 0,
            "byteLength" : 144,
            "byteOffset" : 843936
        },
        {
            "buffer" : 0,
            "byteLength" : 8,
            "byteOffset" : 844080
        },
        {
            "buffer" : 0,
            "byteLength" : 72,
            "byteOffset" : 844088
        }
    ],
    "buffers" : [
        {
            "byteLength" : 844160,
            "uri" : "data:application/octet-stream;base64,"
        }
    ]
}
